<svg xmlns="http://www.w3.org/2000/svg" width="65" height="65" viewBox="0 0 65 65"><path d="M26.871,49.331a5.249,5.249,0,0,0-2.844-6.877l-4.28-1.77a7.145,7.145,0,1,1-.232,13.261,7.038,7.038,0,0,1-3.685-3.511l4.135,1.712a5.263,5.263,0,0,0,6.906-2.815ZM58.036,2.25H6.964A6.966,6.966,0,0,0,0,9.214V32.53l16.917,6.979a9.492,9.492,0,0,1,5.905-1.64L30.86,26.233v-.16a12.71,12.71,0,1,1,12.42,12.7L31.818,46.937a9.546,9.546,0,0,1-18.891,2.336L0,43.92V60.286A6.966,6.966,0,0,0,6.964,67.25H58.036A6.966,6.966,0,0,0,65,60.286V9.214A6.966,6.966,0,0,0,58.036,2.25ZM43.57,34.532a8.459,8.459,0,1,1,8.473-8.459,8.471,8.471,0,0,1-8.473,8.459Zm.015-2.118a6.355,6.355,0,1,0-6.369-6.355A6.365,6.365,0,0,0,43.585,32.414Z" transform="translate(0 -2.25)" fill="#fff"/></svg>